<mxfile host="app.diagrams.net" modified="2024-03-12T10:34:32.814Z" agent="Mozilla/5.0 (Windows NT 10.0; Win64; x64) AppleWebKit/537.36 (KHTML, like Gecko) Chrome/121.0.0.0 Safari/537.36" version="24.0.4" etag="nwjkkSXEYbAGF7ii1XeH" type="github">
  <diagram name="Page-1" id="uXrmDlXfGUyRYzORKw8n">
    <mxGraphModel>
      <root>
        <mxCell id="0" />
        <mxCell id="1" parent="0" />
      </root>
    </mxGraphModel>
  </diagram>
</mxfile>
